<svg width="209" height="30" viewBox="0 0 209 30" fill="none" xmlns="http://www.w3.org/2000/svg">
<path d="M0.871094 0.837891H16.375C17.8926 0.837891 19.2734 1.20703 20.5176 1.94531C21.7754 2.68359 22.7734 3.6748 23.5117 4.91895C24.25 6.14941 24.6191 7.52344 24.6191 9.04102V21.8789C24.6191 23.3691 24.25 24.7295 23.5117 25.96C22.7734 27.1904 21.7754 28.1748 20.5176 28.9131C19.2734 29.6377 17.8926 30 16.375 30H0.871094V0.837891ZM16.375 25.6729C17.4688 25.6729 18.3984 25.2969 19.1641 24.5449C19.9297 23.793 20.3125 22.8838 20.3125 21.8174V9.04102C20.3125 7.96094 19.9297 7.04492 19.1641 6.29297C18.3984 5.52734 17.4688 5.14453 16.375 5.14453H5.19824V25.6729H16.375ZM29.3359 16.3828C29.3359 14.9746 29.6777 13.6963 30.3613 12.5479C31.0586 11.3994 31.9883 10.4834 33.1504 9.7998C34.3125 9.10254 35.5977 8.75391 37.0059 8.75391H48.8594V30H44.5322V13.0811H37.0059C36.0898 13.0811 35.3037 13.4092 34.6475 14.0654C33.9912 14.708 33.6631 15.4941 33.6631 16.4238V22.2891C33.6631 23.2188 33.9912 24.0186 34.6475 24.6885C35.3037 25.3447 36.0898 25.6729 37.0059 25.6729H42.0713V30H37.0059C35.5977 30 34.3125 29.6582 33.1504 28.9746C31.9883 28.2773 31.0586 27.3477 30.3613 26.1855C29.6777 25.0234 29.3359 23.7383 29.3359 22.3301V16.3828ZM53.5762 14.7217C53.5762 13.6143 53.8496 12.6094 54.3965 11.707C54.957 10.8047 55.6953 10.0869 56.6113 9.55371C57.541 9.02051 58.5664 8.75391 59.6875 8.75391H72.1562V13.0811H59.6875C59.1953 13.0811 58.7715 13.2451 58.416 13.5732C58.0742 13.8877 57.9033 14.2705 57.9033 14.7217V15.2344C57.9033 15.6992 58.0742 16.0957 58.416 16.4238C58.7715 16.752 59.1953 16.916 59.6875 16.916H67.4395C68.5605 16.916 69.5791 17.1895 70.4951 17.7363C71.4248 18.2695 72.1631 18.9873 72.71 19.8896C73.2568 20.792 73.5303 21.7969 73.5303 22.9043V24.0117C73.5303 25.1055 73.2568 26.1104 72.71 27.0264C72.1631 27.9287 71.4248 28.6533 70.4951 29.2002C69.5791 29.7334 68.5605 30 67.4395 30H54.54V25.6729H67.4395C67.9316 25.6729 68.3486 25.5088 68.6904 25.1807C69.0459 24.8525 69.2236 24.4561 69.2236 23.9912V22.9248C69.2236 22.4463 69.0459 22.043 68.6904 21.7148C68.3486 21.3867 67.9316 21.2227 67.4395 21.2227H59.6875C58.5664 21.2227 57.541 20.9561 56.6113 20.4229C55.6953 19.876 54.957 19.1514 54.3965 18.249C53.8496 17.333 53.5762 16.3281 53.5762 15.2344V14.7217ZM78.2676 0.837891H82.5947V8.75391H89.2803C90.7568 8.75391 92.0967 9.10254 93.2998 9.7998C94.5166 10.4834 95.4805 11.4062 96.1914 12.5684C96.916 13.7168 97.2783 14.9951 97.2783 16.4033V30H92.9512V16.4648C92.9512 15.5625 92.582 14.7764 91.8438 14.1064C91.1191 13.4229 90.2646 13.0811 89.2803 13.0811H82.5947V30H78.2676V0.837891ZM102.016 0.837891H106.343V25.6729H113.869C114.799 25.6729 115.585 25.3447 116.228 24.6885C116.884 24.0322 117.212 23.2461 117.212 22.3301V16.4648C117.212 15.5352 116.884 14.7422 116.228 14.0859C115.585 13.416 114.799 13.0811 113.869 13.0811H108.804V8.75391H113.869C115.277 8.75391 116.562 9.10254 117.725 9.7998C118.887 10.4834 119.81 11.4062 120.493 12.5684C121.19 13.7305 121.539 15.0156 121.539 16.4238V22.3711C121.539 23.7656 121.19 25.0439 120.493 26.2061C119.81 27.3545 118.887 28.2773 117.725 28.9746C116.562 29.6582 115.277 30 113.869 30H106.343C105.153 30 104.135 29.5762 103.287 28.7285C102.439 27.8809 102.016 26.8623 102.016 25.6729V0.837891ZM126.256 16.4238C126.256 15.0156 126.598 13.7305 127.281 12.5684C127.979 11.4062 128.908 10.4834 130.07 9.7998C131.232 9.10254 132.518 8.75391 133.926 8.75391H138.561C139.969 8.75391 141.254 9.10254 142.416 9.7998C143.578 10.4834 144.501 11.4062 145.185 12.5684C145.882 13.7305 146.23 15.0156 146.23 16.4238V22.3301C146.23 23.7383 145.882 25.0234 145.185 26.1855C144.501 27.3477 143.578 28.2773 142.416 28.9746C141.254 29.6582 139.969 30 138.561 30H133.926C132.518 30 131.232 29.6582 130.07 28.9746C128.908 28.2773 127.979 27.3477 127.281 26.1855C126.598 25.0234 126.256 23.7383 126.256 22.3301V16.4238ZM130.583 22.2891C130.583 23.2188 130.911 24.0186 131.567 24.6885C132.224 25.3447 133.01 25.6729 133.926 25.6729H138.561C139.49 25.6729 140.276 25.3447 140.919 24.6885C141.575 24.0186 141.903 23.2188 141.903 22.2891V16.4648C141.903 15.5352 141.575 14.7422 140.919 14.0859C140.276 13.416 139.49 13.0811 138.561 13.0811H133.926C133.01 13.0811 132.224 13.416 131.567 14.0859C130.911 14.7422 130.583 15.5352 130.583 16.4648V22.2891ZM150.742 16.3828C150.742 14.9746 151.084 13.6963 151.768 12.5479C152.465 11.3994 153.395 10.4834 154.557 9.7998C155.719 9.10254 157.004 8.75391 158.412 8.75391H170.266V30H165.938V13.0811H158.412C157.496 13.0811 156.71 13.4092 156.054 14.0654C155.397 14.708 155.069 15.4941 155.069 16.4238V22.2891C155.069 23.2188 155.397 24.0186 156.054 24.6885C156.71 25.3447 157.496 25.6729 158.412 25.6729H163.478V30H158.412C157.004 30 155.719 29.6582 154.557 28.9746C153.395 28.2773 152.465 27.3477 151.768 26.1855C151.084 25.0234 150.742 23.7383 150.742 22.3301V16.3828ZM175.188 14.7012C175.188 13.6074 175.461 12.6094 176.008 11.707C176.568 10.8047 177.307 10.0869 178.223 9.55371C179.152 9.02051 180.178 8.75391 181.299 8.75391H186.036V13.0605H181.299C180.807 13.0605 180.383 13.2314 180.027 13.5732C179.686 13.9014 179.515 14.3047 179.515 14.7832V30H175.188V14.7012ZM189.338 16.4238C189.338 15.0156 189.68 13.7305 190.363 12.5684C191.061 11.4062 191.99 10.4834 193.152 9.7998C194.314 9.10254 195.6 8.75391 197.008 8.75391H202.073V13.0811H197.008C196.092 13.0811 195.306 13.416 194.649 14.0859C193.993 14.7422 193.665 15.5352 193.665 16.4648V22.3301C193.665 23.2461 193.993 24.0322 194.649 24.6885C195.306 25.3447 196.092 25.6729 197.008 25.6729H204.534V0.837891H208.861V25.6729C208.861 26.8623 208.438 27.8809 207.59 28.7285C206.742 29.5762 205.724 30 204.534 30H197.008C195.6 30 194.314 29.6582 193.152 28.9746C191.99 28.2773 191.061 27.3545 190.363 26.2061C189.68 25.0439 189.338 23.7656 189.338 22.3711V16.4238Z" fill="white"/>
</svg>
